<?xml version="1.0" standalone="no"?>
<!DOCTYPE svg PUBLIC "-//W3C//DTD SVG 20010904//EN"
 "http://www.w3.org/TR/2001/REC-SVG-20010904/DTD/svg10.dtd">
<svg version="1.0" xmlns="http://www.w3.org/2000/svg"
 width="512.000000pt" height="512.000000pt" viewBox="0 0 512.000000 512.000000"
 preserveAspectRatio="xMidYMid meet">

<g transform="translate(0.000000,512.000000) scale(0.100000,-0.100000)"
fill="#000000" stroke="none">
<path d="M2340 4960 c-1177 -123 -2078 -1032 -2180 -2200 -6 -69 -10 -607 -10
-1342 0 -1222 0 -1228 20 -1248 21 -21 24 -21 1318 -17 957 2 1318 7 1377 16
298 45 523 115 769 237 1004 500 1531 1633 1265 2722 -237 973 -1043 1693
-2039 1822 -115 15 -416 21 -520 10z m550 -135 c629 -95 1181 -438 1552 -965
288 -410 438 -956 400 -1458 -27 -348 -127 -681 -292 -969 -115 -199 -217
-332 -384 -498 -379 -376 -871 -605 -1406 -654 -73 -7 -544 -11 -1303 -11
l-1188 0 4 1257 c3 1377 1 1314 63 1572 132 540 459 1016 924 1343 102 72 271
165 393 218 238 102 446 153 742 184 80 8 393 -4 495 -19z"/>
<path d="M2360 4599 c-804 -81 -1492 -633 -1744 -1400 -113 -342 -134 -703
-61 -1051 147 -712 667 -1299 1353 -1528 425 -142 867 -143 1292 -4 693 227
1217 814 1365 1532 192 921 -280 1862 -1136 2266 -325 153 -713 221 -1069 185z
m381 -119 c512 -52 967 -293 1297 -685 428 -509 561 -1206 351 -1840 -163
-492 -516 -897 -984 -1126 -807 -395 -1771 -181 -2345 521 -82 100 -166 233
-231 365 -262 536 -262 1154 0 1690 353 721 1125 1154 1912 1075z"/>
<path d="M1227 3292 c-15 -16 -17 -54 -17 -329 0 -338 0 -335 56 -335 50 0 59
21 63 157 l3 125 123 0 c117 0 125 1 139 22 22 31 20 45 -9 73 -23 24 -30 25
-140 25 l-115 0 0 80 0 80 178 0 c200 0 215 4 215 60 0 57 -12 60 -258 60
-202 0 -223 -2 -238 -18z"/>
<path d="M1941 3284 c-20 -26 -21 -38 -21 -313 0 -301 4 -326 46 -342 12 -4
31 -2 45 5 23 11 24 17 29 141 l5 130 71 -1 c131 -1 212 -66 235 -189 13 -65
22 -79 56 -90 17 -4 30 1 48 20 24 23 25 30 19 73 -10 68 -29 117 -65 167
l-32 44 30 28 c111 104 80 279 -59 337 -29 12 -77 16 -212 16 l-175 0 -20 -26z
m377 -110 c13 -9 27 -27 32 -40 11 -29 -5 -81 -30 -94 -10 -6 -77 -10 -149
-10 l-131 0 0 80 0 80 128 0 c101 0 132 -3 150 -16z"/>
<path d="M2661 3284 c-20 -26 -21 -38 -21 -321 l0 -294 25 -24 24 -25 223 0
c235 0 264 5 279 46 4 12 2 31 -5 45 -12 24 -13 24 -216 29 l-205 5 0 80 0 80
130 3 c102 2 133 6 147 19 24 21 23 58 -2 83 -18 18 -33 20 -150 20 l-130 0 0
80 0 80 199 0 c168 0 202 2 215 16 25 24 24 58 -1 87 -15 15 -40 17 -254 17
l-238 0 -20 -26z"/>
<path d="M3394 3302 c-31 -20 -34 -55 -34 -342 l0 -291 25 -24 24 -25 223 0
c254 0 271 4 276 61 2 21 -3 40 -11 47 -9 8 -82 12 -213 14 l-199 3 0 80 0 80
130 3 c102 2 133 6 147 19 22 19 23 52 4 79 -13 17 -29 19 -150 22 l-136 4 0
79 0 79 198 0 c180 0 200 2 215 18 22 24 21 65 -1 85 -16 15 -49 17 -253 17
-129 0 -239 -4 -245 -8z"/>
<path d="M1524 2252 c-52 -25 -108 -91 -124 -148 -27 -97 16 -204 104 -259
119 -73 293 -11 336 120 7 20 10 65 8 100 -5 75 -37 131 -100 172 -55 37 -162
44 -224 15z m177 -131 c60 -60 26 -171 -58 -187 -76 -14 -143 53 -129 129 16
84 127 118 187 58z"/>
<path d="M2143 2249 c-80 -40 -123 -112 -123 -206 0 -74 25 -129 79 -175 213
-182 505 110 323 323 -20 23 -54 50 -76 60 -57 26 -149 25 -203 -2z m176 -125
c85 -72 18 -211 -92 -190 -84 16 -118 127 -58 187 40 39 105 41 150 3z"/>
<path d="M2774 2252 c-52 -25 -108 -91 -124 -148 -27 -97 16 -204 104 -259
119 -73 293 -11 336 120 7 20 10 65 8 100 -5 75 -37 131 -100 172 -55 37 -162
44 -224 15z m177 -131 c60 -60 26 -171 -58 -187 -76 -14 -143 53 -129 129 16
84 127 118 187 58z"/>
<path d="M3420 2263 c-46 -18 -103 -69 -125 -113 -49 -97 -27 -212 54 -282
213 -182 505 110 323 323 -47 55 -101 79 -177 78 -33 0 -67 -3 -75 -6z m149
-139 c85 -72 18 -211 -92 -190 -84 16 -118 127 -58 187 40 39 105 41 150 3z"/>
</g>
</svg>
